<svg width="60" height="60" viewBox="0 0 60 60" fill="none" xmlns="http://www.w3.org/2000/svg">
<circle cx="36" cy="36" r="24" fill="#FBCC8A"/>
<path d="M26.8333 41.1668C27.4776 41.1668 28 40.6445 28 40.0002C28 39.3558 27.4776 38.8335 26.8333 38.8335C26.189 38.8335 25.6666 39.3558 25.6666 40.0002C25.6666 40.6445 26.189 41.1668 26.8333 41.1668Z" fill="#2F4D5C"/>
<path d="M14 36.6668C14.6444 36.6668 15.1667 36.1445 15.1667 35.5002C15.1667 34.8558 14.6444 34.3335 14 34.3335C13.3557 34.3335 12.8334 34.8558 12.8334 35.5002C12.8334 36.1445 13.3557 36.6668 14 36.6668Z" fill="#2F4D5C"/>
<path d="M41.2572 14.208V44.2989C41.2572 46.2674 39.6451 47.8795 37.6766 47.8795H17.6863C15.7178 47.8795 14.1057 46.2674 14.1057 44.2989V41.2444" stroke="#2F4D5C" stroke-width="2" stroke-linecap="round" stroke-linejoin="round"/>
<path d="M14.123 29.1789V10.7159C14.123 8.74737 15.7352 7.13525 17.7037 7.13525H37.694C39.9 7.13525 41.2746 8.74737 41.2746 10.7159" stroke="#2F4D5C" stroke-width="2" stroke-linecap="round" stroke-linejoin="round"/>
<path d="M22.9642 11.395H32.586" stroke="#2F4D5C" stroke-width="2" stroke-linecap="round" stroke-linejoin="round"/>
<path d="M46.6193 8.76465L8.92957 46.4543" stroke="#2F4D5C" stroke-width="2" stroke-linecap="round" stroke-linejoin="round"/>
</svg>
