<svg width="60" height="60" viewBox="0 0 60 60" fill="none" xmlns="http://www.w3.org/2000/svg">
<circle cx="24" cy="36" r="24" fill="#F5A894"/>
<path d="M48 22C48.5523 22 49 21.5523 49 21C49 20.4477 48.5523 20 48 20C47.4477 20 47 20.4477 47 21C47 21.5523 47.4477 22 48 22Z" fill="#2F4D5C"/>
<path d="M11 49C11.5523 49 12 48.5523 12 48C12 47.4477 11.5523 47 11 47C10.4477 47 10 47.4477 10 48C10 48.5523 10.4477 49 11 49Z" fill="#2F4D5C"/>
<path d="M49.4297 25.6879L53.9344 32.0118C54.1942 32.3799 53.9344 32.8997 53.4796 32.8997L41.5032 33.008C41.3299 33.008 41.1567 33.0946 41.0484 33.2462L33.9232 42.862C33.6417 43.2301 33.0786 43.1435 32.927 42.7104L29.1153 31.3621C29.0504 31.1888 28.9204 31.0589 28.7688 31.0155L17.4205 27.2039C16.9873 27.0523 16.9007 26.4892 17.2689 26.2077L26.8846 19.0825C27.0362 18.9742 27.1012 18.8226 27.1229 18.6277L27.2312 6.6513C27.2312 6.1965 27.7509 5.93662 28.1191 6.1965L37.8648 13.1484C38.0164 13.2567 38.1896 13.2784 38.3629 13.2351L49.7762 9.63998C50.2093 9.51004 50.6208 9.92153 50.4909 10.3547L48.5201 16.5919" stroke="#2F4D5C" stroke-width="2" stroke-linecap="round" stroke-linejoin="round"/>
<path d="M28.0376 32L14.0376 45" stroke="#2F4D5C" stroke-width="2" stroke-linecap="round" stroke-linejoin="round"/>
</svg>
