<svg width="60" height="60" viewBox="0 0 60 60" fill="none" xmlns="http://www.w3.org/2000/svg">
<circle cx="36" cy="36" r="24" fill="#78C9B3"/>
<path d="M33.9807 31.7777C34.6418 31.7777 35.1779 31.2417 35.1779 30.5805C35.1779 29.9193 34.6418 29.3833 33.9807 29.3833C33.3195 29.3833 32.7834 29.9193 32.7834 30.5805C32.7834 31.2417 33.3195 31.7777 33.9807 31.7777Z" fill="#2F4D5C"/>
<path d="M21.2103 20.6039C21.8715 20.6039 22.4075 20.0679 22.4075 19.4067C22.4075 18.7455 21.8715 18.2095 21.2103 18.2095C20.5491 18.2095 20.0131 18.7455 20.0131 19.4067C20.0131 20.0679 20.5491 20.6039 21.2103 20.6039Z" fill="#2F4D5C"/>
<path d="M32.3624 28.0309H28.6881V34.7701L19.6153 28.0309H11.2914C9.48031 28.0309 8.00012 26.5507 8.00012 24.7396V14.2912C8.00012 12.4802 9.48031 11 11.2914 11H32.3624C34.1735 11 35.6536 12.4802 35.6536 14.2912V24.7396C35.6536 26.5507 34.1735 28.0309 32.3624 28.0309Z" stroke="#2F4D5C" stroke-width="2" stroke-linecap="round" stroke-linejoin="round"/>
<path d="M20.3467 33.1158V35.8324C20.3467 37.6435 21.8268 39.1237 23.6379 39.1237H27.3122V45.8629L36.385 39.1237H44.7089C46.52 39.1237 48.0002 37.6435 48.0002 35.8324V25.3841C48.0002 23.573 46.52 22.0928 44.7089 22.0928H36.0193" stroke="#2F4D5C" stroke-width="2" stroke-linecap="round" stroke-linejoin="round"/>
</svg>
